<svg viewBox="219.136 221.184 585.728 589.824" xmlns="http://www.w3.org/2000/svg" style="max-height: 500px" width="585.728" height="589.824">
<g>

<path fill="rgb(114,27,53)" d="M 365.95 496.50 C365.23,498.70 364.10,502.98 363.42,506.00 C362.34,510.83 362.09,511.19 361.41,509.00 C360.99,507.63 358.86,502.91 356.68,498.50 C353.17,491.38 350.95,488.74 336.53,474.50 C322.19,460.32 319.90,457.60 316.45,450.61 C313.03,443.67 312.56,441.85 312.56,435.61 C312.56,429.74 313.11,427.34 315.70,421.82 C320.31,411.98 327.53,404.73 339.26,398.14 C341.31,396.98 343.00,396.23 343.00,396.46 C343.00,396.69 342.12,398.38 341.04,400.21 C337.87,405.58 335.72,415.58 336.46,421.51 C338.80,440.22 356.56,454.36 375.74,452.77 C380.46,452.38 381.78,451.81 384.17,449.14 C387.33,445.59 387.69,442.59 385.55,437.47 C383.84,433.37 382.73,433.11 381.21,436.45 C379.36,440.49 375.59,442.35 370.78,441.58 C361.81,440.15 353.37,434.66 350.10,428.12 C341.76,411.47 355.15,391.98 374.91,392.01 C386.96,392.03 399.24,396.72 407.72,404.52 L 412.50 408.92 L 404.50 409.10 C400.10,409.19 390.42,409.32 383.00,409.39 C369.11,409.50 365.87,410.29 360.75,414.78 C358.07,417.13 358.37,424.44 361.22,426.44 C364.31,428.61 365.50,428.40 366.84,425.45 C370.14,418.22 388.52,418.08 394.55,425.24 C397.06,428.22 397.20,428.92 396.78,435.96 C396.22,445.37 393.71,450.87 383.63,464.77 C376.15,475.09 368.37,489.05 365.95,496.50 ZM 401.83 476.15 C397.44,478.54 391.18,482.41 387.92,484.75 C384.67,487.08 382.00,488.64 382.00,488.20 C382.00,487.02 390.00,474.27 394.93,467.60 C397.30,464.38 401.07,457.87 403.31,453.13 C406.83,445.64 407.43,443.37 407.80,435.98 C408.11,429.64 407.81,426.48 406.61,423.61 C405.73,421.49 405.00,419.52 405.00,419.24 C405.00,418.14 416.84,419.87 419.82,421.41 C423.74,423.43 425.51,426.79 427.00,435.00 C428.47,443.09 427.69,448.30 423.88,455.93 C420.14,463.40 412.68,470.25 401.83,476.15 ZM 353.97 465.75 C359.62,468.61 367.00,468.86 367.00,466.19 C367.00,464.95 364.83,463.34 359.99,460.99 C351.51,456.89 349.57,454.94 346.54,447.49 C344.42,442.28 344.10,441.94 343.10,443.81 C339.78,450.01 345.45,461.45 353.97,465.75 ZM 358.56 476.78 C359.41,478.00 360.76,479.00 361.56,479.00 C363.74,479.00 363.35,474.26 361.07,473.04 C356.93,470.82 355.68,472.67 358.56,476.78 Z" data-index="1"></path>
<path fill="rgb(227,225,230)" d="M 424.50 746.32 C419.05,745.21 421.00,749.06 350.30,599.00 C339.03,575.08 323.60,542.90 316.01,527.50 C308.42,512.10 301.23,496.35 300.04,492.50 C296.89,482.40 296.23,466.06 298.50,455.00 C299.47,450.33 300.59,441.93 301.01,436.34 C301.43,430.75 302.05,425.72 302.40,425.16 C303.33,423.65 300.97,418.24 280.48,375.00 C246.72,303.76 238.93,286.67 239.82,285.78 C240.29,285.31 259.99,285.05 283.59,285.21 L 326.50 285.50 L 332.17 288.16 C337.97,290.88 357.14,309.88 499.99,454.50 C597.22,552.93 663.09,619.00 663.99,619.00 C664.66,619.00 665.00,573.69 665.00,483.08 C665.00,408.33 665.29,346.42 665.63,345.51 C666.34,343.66 676.61,335.81 717.72,305.68 C733.24,294.31 746.40,285.00 746.97,285.00 C747.67,285.00 748.00,357.62 748.00,514.38 C748.00,726.65 747.88,743.86 746.34,745.13 C745.02,746.22 738.64,746.50 714.59,746.49 C686.35,746.49 684.15,746.36 678.87,744.36 C675.77,743.19 671.67,741.17 669.76,739.87 C667.84,738.57 642.49,713.42 613.41,684.00 C584.34,654.58 538.49,608.22 511.53,581.00 L 462.50 531.50 L 462.25 638.81 L 461.99 746.12 L 457.40 742.82 C450.32,737.74 439.05,725.40 432.77,715.86 C424.46,703.24 410.34,675.50 408.43,668.02 C406.19,659.29 406.85,648.09 409.95,642.06 C411.21,639.61 417.04,632.86 422.92,627.06 C431.50,618.58 434.41,614.93 437.72,608.50 C443.95,596.40 446.09,587.17 446.74,569.50 L 447.29 554.50 L 440.80 560.57 C437.23,563.91 429.72,569.72 424.11,573.48 C412.20,581.45 406.14,587.79 401.39,597.22 C396.75,606.44 394.79,615.45 394.63,628.25 C394.56,634.16 394.24,639.00 393.91,639.00 C393.31,639.00 372.09,594.85 370.13,589.50 C368.48,585.01 366.00,572.35 366.00,568.40 C366.00,565.53 365.43,564.59 362.66,562.96 C357.92,560.17 356.88,557.13 355.89,543.21 C353.73,513.00 348.31,501.13 327.76,481.69 C320.75,475.06 313.84,467.93 312.39,465.84 C310.94,463.75 309.36,462.28 308.88,462.58 C307.56,463.39 307.88,474.45 309.47,483.38 C310.33,488.19 312.46,494.56 314.92,499.69 C319.09,508.38 321.48,511.09 341.21,529.50 C352.18,539.73 354.81,545.73 355.98,563.24 C357.50,585.84 358.21,588.00 376.77,627.00 C418.69,715.07 423.95,724.62 439.19,740.23 L 444.60 745.77 L 439.55 746.38 C434.19,747.02 427.81,747.00 424.50,746.32 ZM 369.60 547.81 C372.70,541.82 381.06,534.13 389.44,529.56 C404.24,521.50 413.19,512.49 420.18,498.65 C423.34,492.39 427.00,479.57 427.00,474.76 L 427.00 471.84 L 421.45 476.79 C418.40,479.51 411.54,484.15 406.20,487.12 C391.99,495.00 381.79,505.34 375.71,518.00 C373.21,523.22 370.47,530.65 369.62,534.50 C368.10,541.46 366.93,551.00 367.60,551.00 C367.79,551.00 368.69,549.56 369.60,547.81 ZM 365.95 496.50 C368.37,489.05 376.15,475.09 383.63,464.77 C393.71,450.87 396.22,445.37 396.78,435.96 C397.20,428.92 397.06,428.22 394.55,425.24 C388.52,418.08 370.14,418.22 366.84,425.45 C365.50,428.40 364.31,428.61 361.22,426.44 C358.37,424.44 358.07,417.13 360.75,414.78 C365.87,410.29 369.11,409.50 383.00,409.39 C390.42,409.32 400.10,409.19 404.50,409.10 L 412.50 408.92 L 407.72 404.52 C399.24,396.72 386.96,392.03 374.91,392.01 C355.15,391.98 341.76,411.47 350.10,428.12 C353.37,434.66 361.81,440.15 370.78,441.58 C375.59,442.35 379.36,440.49 381.21,436.45 C382.73,433.11 383.84,433.37 385.55,437.47 C387.69,442.59 387.33,445.59 384.17,449.14 C381.78,451.81 380.46,452.38 375.74,452.77 C356.56,454.36 338.80,440.22 336.46,421.51 C335.72,415.58 337.87,405.58 341.04,400.21 C342.12,398.38 343.00,396.69 343.00,396.46 C343.00,396.23 341.31,396.98 339.26,398.14 C327.53,404.73 320.31,411.98 315.70,421.82 C313.11,427.34 312.56,429.74 312.56,435.61 C312.56,441.85 313.03,443.67 316.45,450.61 C319.90,457.60 322.19,460.32 336.53,474.50 C350.95,488.74 353.17,491.38 356.68,498.50 C358.86,502.91 360.99,507.63 361.41,509.00 C362.09,511.19 362.34,510.83 363.42,506.00 C364.10,502.98 365.23,498.70 365.95,496.50 ZM 401.83 476.15 C412.68,470.25 420.14,463.40 423.88,455.93 C427.69,448.30 428.47,443.09 427.00,435.00 C425.51,426.79 423.74,423.43 419.82,421.41 C416.84,419.87 405.00,418.14 405.00,419.24 C405.00,419.52 405.73,421.49 406.61,423.61 C407.81,426.48 408.11,429.64 407.80,435.98 C407.43,443.37 406.83,445.64 403.31,453.13 C401.07,457.87 397.30,464.38 394.93,467.60 C390.00,474.27 382.00,487.02 382.00,488.20 C382.00,488.64 384.67,487.08 387.92,484.75 C391.18,482.41 397.44,478.54 401.83,476.15 ZM 358.56 476.78 C355.68,472.67 356.93,470.82 361.07,473.04 C363.35,474.26 363.74,479.00 361.56,479.00 C360.76,479.00 359.41,478.00 358.56,476.78 ZM 353.97 465.75 C345.45,461.45 339.78,450.01 343.10,443.81 C344.10,441.94 344.42,442.28 346.54,447.49 C349.57,454.94 351.51,456.89 359.99,460.99 C364.83,463.34 367.00,464.95 367.00,466.19 C367.00,468.86 359.62,468.61 353.97,465.75 Z" data-index="2"></path>
</g>
</svg>